<?xml version="1.0" encoding="utf-8"?>
<!-- Generator: Adobe Illustrator 21.1.0, SVG Export Plug-In . SVG Version: 6.00 Build 0)  -->
<svg version="1.1" id="Layer_1" xmlns="http://www.w3.org/2000/svg" xmlns:xlink="http://www.w3.org/1999/xlink" x="0px" y="0px"
	 viewBox="0 0 323.5 81.3" style="enable-background:new 0 0 323.5 81.3;" xml:space="preserve">
<style type="text/css">
	.st1{fill:#FFFFFF;}
	.st2{clip-path:url(#SVGID_2_);fill:#FFFFFF;}
	.st3{clip-path:url(#SVGID_4_);fill:#FFFFFF;}
	.st4{clip-path:url(#SVGID_6_);fill:#FFFFFF;}
	.st5{clip-path:url(#SVGID_8_);fill:#FFFFFF;}
	.st6{clip-path:url(#SVGID_10_);fill:#FFFFFF;}
	.st7{clip-path:url(#SVGID_12_);fill:#FFFFFF;}
	.st8{clip-path:url(#SVGID_14_);fill:#FFFFFF;}
	.st9{clip-path:url(#SVGID_16_);fill:#FFFFFF;}
	.st10{clip-path:url(#SVGID_18_);fill:#FFFFFF;}
	.st11{clip-path:url(#SVGID_20_);fill:#FFFFFF;}
	.st12{clip-path:url(#SVGID_22_);fill:#FFFFFF;}
	.st13{clip-path:url(#SVGID_24_);fill:#FFFFFF;}
	.st14{clip-path:url(#SVGID_26_);fill:#FFFFFF;}
	.st15{clip-path:url(#SVGID_28_);fill:#FFFFFF;}
	.st16{clip-path:url(#SVGID_30_);fill:#FFFFFF;}
	.st17{clip-path:url(#SVGID_32_);fill:#FFFFFF;}
	.st18{clip-path:url(#SVGID_34_);fill:#FFFFFF;}
	.st19{clip-path:url(#SVGID_36_);fill:#FFFFFF;}
	.st20{clip-path:url(#SVGID_38_);fill:#FFFFFF;}
	.st21{clip-path:url(#SVGID_40_);fill:#FFFFFF;}
	.st22{clip-path:url(#SVGID_42_);fill:#FFFFFF;}
	.st23{clip-path:url(#SVGID_44_);fill:#FFFFFF;}
	.st24{clip-path:url(#SVGID_46_);fill:#FFFFFF;}
	.st25{clip-path:url(#SVGID_48_);fill:#FFFFFF;}
	.st26{clip-path:url(#SVGID_50_);fill:#FFFFFF;}
	.st27{clip-path:url(#SVGID_52_);fill:#FFFFFF;}
	.st28{clip-path:url(#SVGID_54_);fill:#FFFFFF;}
	.st29{clip-path:url(#SVGID_56_);fill:#FFFFFF;}
	.st30{clip-path:url(#SVGID_58_);fill:#FFFFFF;}
	.st31{clip-path:url(#SVGID_60_);fill:#FFFFFF;}
	.st32{clip-path:url(#SVGID_62_);fill:#FFFFFF;}
	.st33{clip-path:url(#SVGID_64_);fill:#FFFFFF;}
	.st34{clip-path:url(#SVGID_66_);fill:#FFFFFF;}
	.st35{clip-path:url(#SVGID_68_);fill:#FFFFFF;}
</style>

<rect x="51.1" y="2.1" class="st1" width="1.2" height="55.6"/>
<polygon class="st1" points="64,69.1 65.5,69.1 64.5,72.7 68.6,72.7 69.6,69.1 71.1,69.1 68.8,77.8 67.2,77.8 68.2,74.1 64.2,74.1 
	63.2,77.8 61.6,77.8 "/>
<g>
	<g>
		<defs>
			<rect id="SVGID_1_" y="2.1" width="323.4" height="77.7"/>
		</defs>
		<clipPath id="SVGID_2_">
			<use xlink:href="#SVGID_1_"  style="overflow:visible;"/>
		</clipPath>
		<path class="st2" d="M72.9,74h3.4c0-0.1,0.1-0.3,0.1-0.5c0-0.7-0.4-1.3-1.3-1.3c-0.6,0-1.1,0.2-1.5,0.6C73.3,73.3,73,73.6,72.9,74
			 M72.7,75c0,1,0.6,1.7,1.7,1.7c0.6,0,1.1-0.2,1.7-0.6l0.7,1c-0.6,0.5-1.4,0.9-2.5,0.9c-1.8,0-3-1.1-3-2.9c0-1,0.4-2.1,1.2-2.8
			c0.7-0.7,1.6-1.1,2.7-1.1c1.7,0,2.6,1.1,2.6,2.5c0,0.5-0.1,0.9-0.3,1.4L72.7,75L72.7,75z"/>
	</g>
</g>
<polygon class="st1" points="80.8,68.7 82.3,68.7 79.9,77.8 78.4,77.8 "/>
<g>
	<g>
		<defs>
			<rect id="SVGID_3_" y="2.1" width="323.4" height="77.7"/>
		</defs>
		<clipPath id="SVGID_4_">
			<use xlink:href="#SVGID_3_"  style="overflow:visible;"/>
		</clipPath>
		<path class="st3" d="M87.1,76c0.5-0.5,0.8-1.2,0.8-2c0-1-0.6-1.6-1.5-1.6c-0.6,0-1.1,0.2-1.5,0.7c-0.5,0.5-0.8,1.2-0.8,1.9
			c0,1,0.7,1.6,1.6,1.6C86.2,76.6,86.7,76.4,87.1,76 M83.6,76.6l-0.8,3.1h-1.5l2.3-8.5h1.5l-0.2,0.9c0.6-0.6,1.2-1,2.1-1
			c1.5,0,2.6,1.1,2.6,2.8c0,1.2-0.5,2.2-1.2,2.9s-1.5,1.1-2.4,1.1C84.7,77.9,84,77.4,83.6,76.6"/>
	</g>
</g>
<path class="st1" d="M92.5,68.8h1.6l-0.4,1.4h-1.6L92.5,68.8z M91.9,71.2h1.5l-1.8,6.5h-1.5L91.9,71.2z"/>
<g>
	<g>
		<defs>
			<rect id="SVGID_5_" y="2.1" width="323.4" height="77.7"/>
		</defs>
		<clipPath id="SVGID_6_">
			<use xlink:href="#SVGID_5_"  style="overflow:visible;"/>
		</clipPath>
		<path class="st4" d="M95.4,71.2h1.5L96.7,72c0.5-0.5,1.2-1,2-1c1.2,0,2,0.8,2,2c0,0.3-0.1,0.8-0.2,1.2l-0.9,3.6H98l1-3.6
			c0.1-0.2,0.1-0.5,0.1-0.7c0-0.7-0.4-1-1.1-1c-0.8,0-1.5,0.7-1.8,1.6l-1,3.7h-1.5L95.4,71.2z"/>
	</g>
	<g>
		<defs>
			<rect id="SVGID_7_" y="2.1" width="323.4" height="77.7"/>
		</defs>
		<clipPath id="SVGID_8_">
			<use xlink:href="#SVGID_7_"  style="overflow:visible;"/>
		</clipPath>
		<path class="st5" d="M106.5,75.4c0.4-0.4,0.7-0.9,0.7-1.5c0-0.8-0.6-1.5-1.6-1.5c-0.6,0-1.1,0.2-1.5,0.6c-0.4,0.4-0.7,1-0.7,1.6
			c0,0.9,0.7,1.4,1.5,1.4C105.5,76,106.1,75.8,106.5,75.4 M100.9,78.8l0.8-1c0.7,0.5,1.6,0.8,2.4,0.8c0.7,0,1.2-0.2,1.6-0.6
			c0.3-0.3,0.5-0.8,0.7-1.3l0.1-0.4c-0.7,0.6-1.3,1-2.2,1c-1.3,0-2.5-0.8-2.5-2.4c0-1.1,0.5-2,1.1-2.7c0.7-0.7,1.6-1.1,2.5-1.1
			c1.2,0,1.8,0.6,2.2,1.3l0.3-1.2h1.5l-1.4,5.4c-0.3,1.2-0.6,1.7-1.1,2.2c-0.6,0.6-1.4,0.9-2.6,0.9C103,79.8,101.8,79.4,100.9,78.8"
			/>
	</g>
	<g>
		<defs>
			<rect id="SVGID_9_" y="2.1" width="323.4" height="77.7"/>
		</defs>
		<clipPath id="SVGID_10_">
			<use xlink:href="#SVGID_9_"  style="overflow:visible;"/>
		</clipPath>
		<path class="st6" d="M113.2,76.3l1.2-1c0.7,0.8,1.5,1.2,2.6,1.2c1,0,1.7-0.5,1.7-1.2c0-0.5-0.4-0.8-1.6-1.3
			c-1.3-0.5-2.2-1.1-2.2-2.3c0-0.7,0.3-1.3,0.7-1.8c0.6-0.6,1.5-1,2.6-1c1.4,0,2.5,0.5,3.2,1.3l-1.1,1c-0.7-0.6-1.3-1-2.2-1
			c-1,0-1.6,0.6-1.6,1.1c0,0.6,0.4,0.8,1.7,1.3s2.2,1.1,2.2,2.3c0,0.7-0.3,1.3-0.8,1.8c-0.6,0.6-1.6,1-2.6,1
			C115.2,77.9,114,77.3,113.2,76.3"/>
	</g>
</g>
<path class="st1" d="M123.6,68.8h1.6l-0.4,1.4h-1.6L123.6,68.8z M123,71.2h1.5l-1.8,6.5h-1.5L123,71.2z"/>
<polygon class="st1" points="127.2,68.7 128.7,68.7 126.3,77.8 124.8,77.8 "/>
<path class="st1" d="M130.7,68.8h1.6l-0.4,1.4h-1.6L130.7,68.8z M130.1,71.2h1.5l-1.8,6.5h-1.5L130.1,71.2z"/>
<g>
	<g>
		<defs>
			<rect id="SVGID_11_" y="2.1" width="323.4" height="77.7"/>
		</defs>
		<clipPath id="SVGID_12_">
			<use xlink:href="#SVGID_11_"  style="overflow:visible;"/>
		</clipPath>
		<path class="st7" d="M132.3,75c0-1.1,0.4-2.1,1.2-2.8c0.7-0.7,1.7-1.2,2.7-1.2c1.4,0,2.2,0.7,2.7,1.5l-1.2,0.8
			c-0.3-0.6-0.8-1-1.6-1c-0.5,0-1,0.2-1.4,0.6c-0.5,0.5-0.8,1.2-0.8,2c0,1,0.7,1.6,1.5,1.6c0.7,0,1.2-0.3,1.7-0.7l0.8,1
			c-0.7,0.6-1.4,1-2.5,1C133.6,77.9,132.3,76.8,132.3,75"/>
	</g>
	<g>
		<defs>
			<rect id="SVGID_13_" y="2.1" width="323.4" height="77.7"/>
		</defs>
		<clipPath id="SVGID_14_">
			<use xlink:href="#SVGID_13_"  style="overflow:visible;"/>
		</clipPath>
		<path class="st8" d="M143.7,76c0.5-0.5,0.8-1.2,0.8-1.9c0-1.1-0.7-1.7-1.7-1.7c-0.6,0-1.1,0.3-1.4,0.6c-0.5,0.5-0.8,1.2-0.8,1.9
			c0,1.1,0.7,1.7,1.7,1.7C142.8,76.6,143.3,76.4,143.7,76 M145.9,74.1c0,1-0.4,2-1.2,2.7c-0.7,0.7-1.6,1.1-2.7,1.1
			c-1.9,0-3.1-1.3-3.1-3c0-1,0.4-2,1.2-2.7c0.7-0.7,1.6-1.1,2.7-1.1C144.7,71.1,145.9,72.4,145.9,74.1"/>
	</g>
	<g>
		<defs>
			<rect id="SVGID_15_" y="2.1" width="323.4" height="77.7"/>
		</defs>
		<clipPath id="SVGID_16_">
			<use xlink:href="#SVGID_15_"  style="overflow:visible;"/>
		</clipPath>
		<path class="st9" d="M148.3,71.2h1.5l-0.2,0.8c0.5-0.5,1.2-1,2-1c1.2,0,2,0.8,2,2c0,0.3-0.1,0.8-0.2,1.2l-0.9,3.6H151l1-3.6
			c0.1-0.2,0.1-0.5,0.1-0.7c0-0.7-0.4-1-1.1-1c-0.8,0-1.5,0.7-1.8,1.6l-1,3.7h-1.5L148.3,71.2z"/>
	</g>
</g>
<polygon class="st1" points="159.5,69.1 161.1,69.1 161.9,75.7 166.2,69.1 168,69.1 162,77.8 160.7,77.8 "/>
<g>
	<g>
		<defs>
			<rect id="SVGID_17_" y="2.1" width="323.4" height="77.7"/>
		</defs>
		<clipPath id="SVGID_18_">
			<use xlink:href="#SVGID_17_"  style="overflow:visible;"/>
		</clipPath>
		<path class="st10" d="M171,75.3l0.1-0.3c-0.4-0.1-1-0.2-1.6-0.2c-0.5,0-1,0.2-1.3,0.4c-0.2,0.2-0.3,0.5-0.3,0.8
			c0,0.5,0.4,0.9,1.1,0.9C169.9,76.8,170.8,76.2,171,75.3 M166.4,76.1c0-0.7,0.2-1.2,0.6-1.6c0.5-0.5,1.3-0.8,2.2-0.8
			c0.8,0,1.4,0.1,2,0.3v-0.1c0-0.2,0.1-0.3,0.1-0.5c0-0.6-0.4-1-1.4-1c-0.7,0-1.3,0.1-1.8,0.4l-0.2-1.2c0.7-0.3,1.4-0.4,2.3-0.4
			c1.7,0,2.6,0.7,2.6,2c0,0.3-0.1,0.6-0.1,1l-1,3.7h-1.5l0.2-0.9c-0.6,0.6-1.3,1-2.2,1C167.3,77.9,166.4,77.2,166.4,76.1"/>
	</g>
</g>
<polygon class="st1" points="176.1,68.7 177.6,68.7 175.2,77.8 173.7,77.8 "/>
<polygon class="st1" points="179.6,68.7 181.1,68.7 178.7,77.8 177.2,77.8 "/>
<g>
	<g>
		<defs>
			<rect id="SVGID_19_" y="2.1" width="323.4" height="77.7"/>
		</defs>
		<clipPath id="SVGID_20_">
			<use xlink:href="#SVGID_19_"  style="overflow:visible;"/>
		</clipPath>
		<path class="st11" d="M182.7,74h3.4c0-0.1,0.1-0.3,0.1-0.5c0-0.7-0.4-1.3-1.3-1.3c-0.6,0-1.1,0.2-1.5,0.6
			C183.1,73.3,182.9,73.6,182.7,74 M182.6,75c0,1,0.6,1.7,1.7,1.7c0.6,0,1.1-0.2,1.7-0.6l0.7,1c-0.6,0.5-1.4,0.9-2.5,0.9
			c-1.8,0-3-1.1-3-2.9c0-1,0.4-2.1,1.2-2.8c0.7-0.7,1.6-1.1,2.6-1.1c1.7,0,2.6,1.1,2.6,2.5c0,0.5-0.1,0.9-0.3,1.4L182.6,75L182.6,75
			z"/>
	</g>
	<g>
		<defs>
			<rect id="SVGID_21_" y="2.1" width="323.4" height="77.7"/>
		</defs>
		<clipPath id="SVGID_22_">
			<use xlink:href="#SVGID_21_"  style="overflow:visible;"/>
		</clipPath>
		<path class="st12" d="M188.9,71.2h1.5l0.5,4.8l2.9-4.8h1.6l-4.2,6.7c-0.9,1.3-1.6,1.8-2.7,1.8c-0.6,0-1.1-0.2-1.5-0.4l0.8-1.1
			c0.2,0.2,0.6,0.3,0.8,0.3c0.4,0,0.7-0.2,1.1-0.7L188.9,71.2z"/>
	</g>
	<g>
		<defs>
			<rect id="SVGID_23_" y="2.1" width="323.4" height="77.7"/>
		</defs>
		<clipPath id="SVGID_24_">
			<use xlink:href="#SVGID_23_"  style="overflow:visible;"/>
		</clipPath>
		<path class="st13" d="M199.7,74.2c0-1.4,0.6-2.8,1.6-3.7c0.9-0.9,2.2-1.5,3.7-1.5c1.6,0,2.7,0.7,3.4,1.9l-1.3,0.9
			c-0.5-0.8-1.2-1.3-2.3-1.3c-0.9,0-1.7,0.4-2.3,1c-0.7,0.7-1.2,1.7-1.2,2.8c0,1.4,1,2.3,2.4,2.3c1,0,1.6-0.4,2.3-1l1,1
			c-0.8,0.8-1.8,1.4-3.3,1.4C201.4,77.9,199.7,76.5,199.7,74.2"/>
	</g>
	<g>
		<defs>
			<rect id="SVGID_25_" y="2.1" width="323.4" height="77.7"/>
		</defs>
		<clipPath id="SVGID_26_">
			<use xlink:href="#SVGID_25_"  style="overflow:visible;"/>
		</clipPath>
		<path class="st14" d="M212.5,75.3l0.1-0.3c-0.4-0.1-1-0.2-1.6-0.2c-0.5,0-1,0.2-1.3,0.4c-0.2,0.2-0.3,0.5-0.3,0.8
			c0,0.5,0.4,0.9,1.1,0.9C211.4,76.8,212.3,76.2,212.5,75.3 M207.9,76.1c0-0.7,0.2-1.2,0.6-1.6c0.5-0.5,1.3-0.8,2.2-0.8
			c0.8,0,1.4,0.1,2,0.3v-0.1c0-0.2,0.1-0.3,0.1-0.5c0-0.6-0.4-1-1.4-1c-0.7,0-1.3,0.1-1.8,0.4l-0.2-1.2c0.7-0.3,1.4-0.4,2.3-0.4
			c1.7,0,2.6,0.7,2.6,2c0,0.3-0.1,0.6-0.1,1l-1,3.7h-1.5l0.2-0.9c-0.6,0.6-1.3,1-2.2,1C208.8,77.9,207.9,77.2,207.9,76.1"/>
	</g>
	<g>
		<defs>
			<rect id="SVGID_27_" y="2.1" width="323.4" height="77.7"/>
		</defs>
		<clipPath id="SVGID_28_">
			<use xlink:href="#SVGID_27_"  style="overflow:visible;"/>
		</clipPath>
		<path class="st15" d="M216.8,71.2h1.5l-0.4,1.5c0.7-1,1.6-1.7,2.7-1.6l-0.4,1.6h-0.1c-1.3,0-2.5,0.8-2.9,2.7l-0.6,2.4h-1.5
			L216.8,71.2z"/>
	</g>
	<g>
		<defs>
			<rect id="SVGID_29_" y="2.1" width="323.4" height="77.7"/>
		</defs>
		<clipPath id="SVGID_30_">
			<use xlink:href="#SVGID_29_"  style="overflow:visible;"/>
		</clipPath>
		<path class="st16" d="M222.2,74h3.4c0-0.1,0.1-0.3,0.1-0.5c0-0.7-0.4-1.3-1.3-1.3c-0.6,0-1.1,0.2-1.5,0.6
			C222.6,73.3,222.3,73.6,222.2,74 M222,75c0,1,0.6,1.7,1.7,1.7c0.6,0,1.1-0.2,1.7-0.6l0.7,1c-0.6,0.5-1.4,0.9-2.5,0.9
			c-1.8,0-3-1.1-3-2.9c0-1,0.4-2.1,1.2-2.8c0.7-0.7,1.6-1.1,2.6-1.1c1.7,0,2.6,1.1,2.6,2.5c0,0.5-0.1,0.9-0.3,1.4L222,75L222,75z"/>
	</g>
	<g>
		<defs>
			<rect id="SVGID_31_" y="2.1" width="323.4" height="77.7"/>
		</defs>
		<clipPath id="SVGID_32_">
			<use xlink:href="#SVGID_31_"  style="overflow:visible;"/>
		</clipPath>
		<path class="st17" d="M17.5,21.2c-0.2-0.3-0.3-0.6-0.3-0.9l0,0c0-0.3,0.1-0.6,0.4-0.9l4-3.9l4,3.9c0.2,0.3,0.3,0.6,0.3,0.9l0,0
			c0,0.3-0.1,0.6-0.4,0.9l-4,3.9L17.5,21.2z"/>
	</g>
	<g>
		<defs>
			<rect id="SVGID_33_" y="2.1" width="323.4" height="77.7"/>
		</defs>
		<clipPath id="SVGID_34_">
			<use xlink:href="#SVGID_33_"  style="overflow:visible;"/>
		</clipPath>
		<path class="st18" d="M17.5,32.6c-0.2-0.3-0.3-0.6-0.3-0.9l0,0c0-0.3,0.1-0.6,0.4-0.9l4-3.9l4,3.9c0.2,0.3,0.3,0.6,0.3,0.9l0,0
			c0,0.3-0.1,0.6-0.4,0.9l-4,3.9L17.5,32.6z"/>
	</g>
	<g>
		<defs>
			<rect id="SVGID_35_" y="2.1" width="323.4" height="77.7"/>
		</defs>
		<clipPath id="SVGID_36_">
			<use xlink:href="#SVGID_35_"  style="overflow:visible;"/>
		</clipPath>
		<path class="st19" d="M23.4,26.9c-0.2-0.3-0.3-0.6-0.3-0.9s0.1-0.6,0.4-0.9l4-3.9l4,3.9c0.2,0.3,0.3,0.6,0.3,0.9l0,0
			c0,0.3-0.1,0.6-0.4,0.9l-4,3.9L23.4,26.9z"/>
	</g>
	<g>
		<defs>
			<rect id="SVGID_37_" y="2.1" width="323.4" height="77.7"/>
		</defs>
		<clipPath id="SVGID_38_">
			<use xlink:href="#SVGID_37_"  style="overflow:visible;"/>
		</clipPath>
		<path class="st20" d="M11.6,26.9c-0.2-0.3-0.3-0.6-0.3-0.9l0,0c0-0.3,0.1-0.6,0.4-0.9l4-3.9l4,3.9c0.2,0.3,0.3,0.6,0.3,0.9l0,0
			c0,0.3-0.1,0.6-0.4,0.9l-4,3.9L11.6,26.9z"/>
	</g>
	<g>
		<defs>
			<rect id="SVGID_39_" y="2.1" width="323.4" height="77.7"/>
		</defs>
		<clipPath id="SVGID_40_">
			<use xlink:href="#SVGID_39_"  style="overflow:visible;"/>
		</clipPath>
		<path class="st21" d="M21.5,42.8c-0.4,0-0.8-0.1-1.1-0.2s-0.7-0.3-1-0.7L16,38.6L7,30H0v-3.8h8.1c0.7,0,1,0.2,1.4,0.7l11.9,11.6
			L33.3,27c0.4-0.4,0.8-0.7,1.4-0.7h8.2V30h-7L27,38.6l-3.3,3.3c-0.3,0.4-0.8,0.6-1.1,0.7C22.3,42.7,21.9,42.8,21.5,42.8"/>
	</g>
	<g>
		<defs>
			<rect id="SVGID_41_" y="2.1" width="323.4" height="77.7"/>
		</defs>
		<clipPath id="SVGID_42_">
			<use xlink:href="#SVGID_41_"  style="overflow:visible;"/>
		</clipPath>
		<path class="st22" d="M65.6,48.5v-9.7h-2.2v-2.6h2.2v-2.1c0-1.8,0.4-3,1.1-3.7c0.8-0.7,1.7-1,2.7-1c2.2,0,3.5,1.1,3.9,3.4
			l-2.5,0.4c-0.1-1-0.5-1.4-1.1-1.4c-0.4,0-0.7,0.2-0.9,0.5c-0.2,0.3-0.2,0.9-0.2,1.9v2.1h2.5v2.6h-2.5v9.7h2.8v2.6h-7.9v-2.6
			L65.6,48.5L65.6,48.5z"/>
	</g>
	<g>
		<defs>
			<rect id="SVGID_43_" y="2.1" width="323.4" height="77.7"/>
		</defs>
		<clipPath id="SVGID_44_">
			<use xlink:href="#SVGID_43_"  style="overflow:visible;"/>
		</clipPath>
		<path class="st23" d="M76.7,43.7c0,1.5,0.5,2.7,1.4,3.6s2,1.4,3.3,1.4s2.5-0.5,3.4-1.4s1.4-2.1,1.4-3.6s-0.5-2.6-1.4-3.6
			c-0.9-0.9-2-1.4-3.3-1.4c-1.4,0-2.5,0.5-3.4,1.4C77.1,41.1,76.7,42.3,76.7,43.7 M73.6,43.7c0-2.3,0.8-4.2,2.3-5.6
			c1.5-1.5,3.4-2.2,5.5-2.2s4,0.7,5.5,2.2c1.5,1.4,2.3,3.3,2.3,5.7s-0.8,4.2-2.3,5.7s-3.4,2.2-5.5,2.2c-2.2,0-4.1-0.7-5.6-2.2
			C74.4,47.9,73.6,46,73.6,43.7"/>
	</g>
	<g>
		<defs>
			<rect id="SVGID_45_" y="2.1" width="323.4" height="77.7"/>
		</defs>
		<clipPath id="SVGID_46_">
			<use xlink:href="#SVGID_45_"  style="overflow:visible;"/>
		</clipPath>
		<path class="st24" d="M107.2,48.5v2.6h-5.5v-1.7c-1.7,1.3-3.3,1.9-4.9,1.9c-1,0-1.8-0.2-2.5-0.7c-0.6-0.4-1.1-1-1.3-1.7
			c-0.2-0.7-0.3-1.8-0.3-3.3v-6.8h-2.1v-2.6h5v9c0,1.1,0,1.8,0.1,2.2c0.1,0.4,0.2,0.7,0.5,0.9c0.3,0.2,0.7,0.4,1.1,0.4
			c1.3,0,2.8-0.6,4.3-1.9v-8H99v-2.6h5.5v12.2L107.2,48.5L107.2,48.5z"/>
	</g>
	<g>
		<defs>
			<rect id="SVGID_47_" y="2.1" width="323.4" height="77.7"/>
		</defs>
		<clipPath id="SVGID_48_">
			<use xlink:href="#SVGID_47_"  style="overflow:visible;"/>
		</clipPath>
		<path class="st25" d="M114.2,36.3v1.8c1.9-1.3,3.6-2,5.1-2c1,0,1.8,0.2,2.4,0.7c0.6,0.5,1,1,1.2,1.7s0.3,1.6,0.3,2.9v7.2h2.5v2.6
			h-5.4v-9.7c0-1.1-0.2-1.9-0.5-2.2c-0.3-0.3-0.8-0.5-1.2-0.5c-1.3,0-2.7,0.6-4.4,1.9v7.9h2.6v2.6h-8.1v-2.6h2.6v-9.7h-2.6v-2.6
			C108.7,36.3,114.2,36.3,114.2,36.3z"/>
	</g>
	<g>
		<defs>
			<rect id="SVGID_49_" y="2.1" width="323.4" height="77.7"/>
		</defs>
		<clipPath id="SVGID_50_">
			<use xlink:href="#SVGID_49_"  style="overflow:visible;"/>
		</clipPath>
		<path class="st26" d="M130.3,43.7c0,1.6,0.5,2.9,1.4,3.8s2,1.3,3.3,1.3c1.2,0,2.4-0.5,3.3-1.4c1-0.9,1.4-2.2,1.4-3.8
			c0-1.6-0.5-2.9-1.5-3.7c-1-0.8-2.1-1.3-3.3-1.3c-1.3,0-2.4,0.5-3.3,1.5C130.7,41,130.3,42.2,130.3,43.7 M145.3,48.5v2.6h-5.6v-2.2
			c-1.5,1.6-3.2,2.4-5.3,2.4c-1.9,0-3.6-0.7-5.1-2s-2.2-3.2-2.2-5.6s0.8-4.4,2.3-5.8s3.2-2.1,5.1-2.1c2,0,3.7,0.8,5.2,2.4v-5.9h-2.8
			v-2.6h5.8v18.7L145.3,48.5L145.3,48.5z"/>
	</g>
	<g>
		<defs>
			<rect id="SVGID_51_" y="2.1" width="323.4" height="77.7"/>
		</defs>
		<clipPath id="SVGID_52_">
			<use xlink:href="#SVGID_51_"  style="overflow:visible;"/>
		</clipPath>
		<path class="st27" d="M156.5,45.6c-1.3-1-2.5-1.5-3.8-1.5c-0.8,0-1.5,0.2-2,0.7s-0.8,1.1-0.8,1.8c0,0.7,0.2,1.3,0.7,1.7
			c0.5,0.5,1.1,0.7,1.9,0.7c1.4,0,2.7-0.6,4-1.8L156.5,45.6L156.5,45.6z M161.9,48.5v2.6h-5.1v-1.8c-1.4,1.4-3,2.1-4.7,2.1
			c-1.3,0-2.5-0.4-3.5-1.3s-1.5-2-1.5-3.4s0.5-2.5,1.6-3.4s2.3-1.4,3.8-1.4c1.4,0,2.7,0.4,4,1.3v-1.5c0-0.8-0.1-1.3-0.2-1.7
			c-0.1-0.4-0.5-0.8-1-1.1c-0.5-0.3-1.2-0.5-2.1-0.5c-1.5,0-2.5,0.6-3.2,1.7l-2.8-0.7c1.2-2.3,3.4-3.5,6.4-3.5
			c1.1,0,2.1,0.2,2.9,0.5c0.8,0.3,1.4,0.7,1.8,1.2c0.4,0.5,0.7,1,0.8,1.5c0.1,0.6,0.2,1.4,0.2,2.6v6.9L161.9,48.5L161.9,48.5z"/>
	</g>
	<g>
		<defs>
			<rect id="SVGID_53_" y="2.1" width="323.4" height="77.7"/>
		</defs>
		<clipPath id="SVGID_54_">
			<use xlink:href="#SVGID_53_"  style="overflow:visible;"/>
		</clipPath>
		<path class="st28" d="M162.8,38.9v-2.6h1.9V34l2.9-2.7v4.9h2.7v2.6h-2.7V46c0,1.2,0.1,1.9,0.2,2.1c0.1,0.3,0.4,0.4,1,0.4
			c0.5,0,1.1-0.1,1.6-0.3v2.7c-0.7,0.3-1.5,0.4-2.2,0.4c-0.9,0-1.6-0.2-2.2-0.6c-0.6-0.4-0.9-0.9-1-1.5s-0.2-1.6-0.2-3.1v-7.4h-2
			V38.9z"/>
	</g>
	<g>
		<defs>
			<rect id="SVGID_55_" y="2.1" width="323.4" height="77.7"/>
		</defs>
		<clipPath id="SVGID_56_">
			<use xlink:href="#SVGID_55_"  style="overflow:visible;"/>
		</clipPath>
		<path class="st29" d="M174.7,31.2c0-0.5,0.2-0.9,0.5-1.2c0.3-0.3,0.8-0.5,1.3-0.5s0.9,0.2,1.2,0.5s0.5,0.8,0.5,1.2
			c0,0.5-0.2,0.9-0.5,1.2c-0.3,0.3-0.8,0.5-1.2,0.5c-0.5,0-0.9-0.2-1.2-0.5S174.7,31.7,174.7,31.2 M175.1,48.5v-9.7h-2.3v-2.6h5.2
			v12.2h2.3V51h-7.5v-2.6L175.1,48.5L175.1,48.5z"/>
	</g>
	<g>
		<defs>
			<rect id="SVGID_57_" y="2.1" width="323.4" height="77.7"/>
		</defs>
		<clipPath id="SVGID_58_">
			<use xlink:href="#SVGID_57_"  style="overflow:visible;"/>
		</clipPath>
		<path class="st30" d="M185.1,43.7c0,1.5,0.5,2.7,1.4,3.6s2,1.4,3.3,1.4s2.5-0.5,3.4-1.4s1.4-2.1,1.4-3.6s-0.5-2.6-1.4-3.6
			c-0.9-0.9-2-1.4-3.3-1.4c-1.4,0-2.5,0.5-3.4,1.4C185.5,41.1,185.1,42.3,185.1,43.7 M182,43.7c0-2.3,0.8-4.2,2.3-5.6
			c1.5-1.5,3.4-2.2,5.5-2.2s4,0.7,5.5,2.2c1.5,1.4,2.3,3.3,2.3,5.7s-0.8,4.2-2.3,5.7s-3.4,2.2-5.5,2.2c-2.2,0-4.1-0.7-5.6-2.2
			C182.8,47.9,182,46,182,43.7"/>
	</g>
	<g>
		<defs>
			<rect id="SVGID_59_" y="2.1" width="323.4" height="77.7"/>
		</defs>
		<clipPath id="SVGID_60_">
			<use xlink:href="#SVGID_59_"  style="overflow:visible;"/>
		</clipPath>
		<path class="st31" d="M204.8,36.3v1.8c1.9-1.3,3.6-2,5.1-2c1,0,1.8,0.2,2.4,0.7c0.6,0.5,1,1,1.2,1.7s0.3,1.6,0.3,2.9v7.2h2.5v2.6
			h-5.4v-9.7c0-1.1-0.2-1.9-0.5-2.2c-0.3-0.3-0.8-0.5-1.2-0.5c-1.3,0-2.7,0.6-4.4,1.9v7.9h2.6v2.6h-8.1v-2.6h2.6v-9.7h-2.6v-2.6
			C199.3,36.3,204.8,36.3,204.8,36.3z"/>
	</g>
</g>
<polygon class="st1" points="62.2,8.9 63.9,8.9 68.9,20.9 73.9,8.9 75.6,8.9 69.6,23 68.2,23 "/>
<path class="st1" d="M84.8,17.7l-3.2-7.1l-3.2,7.1H84.8z M80.9,8.8h1.5l6.4,14H87l-1.6-3.7h-7.6l-1.7,3.7h-1.6L80.9,8.8z"/>
<polygon class="st1" points="90.9,8.9 92.4,8.9 92.4,21.4 100.3,21.4 100.3,22.9 90.9,22.9 "/>
<polygon class="st1" points="103,8.9 104.6,8.9 104.6,21.4 112.4,21.4 112.4,22.9 103,22.9 "/>
<polygon class="st1" points="115.1,8.9 125.2,8.9 125.2,10.4 116.7,10.4 116.7,15.1 124.3,15.1 124.3,16.5 116.7,16.5 116.7,21.4 
	125.3,21.4 125.3,22.9 115.1,22.9 "/>
<polygon class="st1" points="132.5,17.3 126.7,8.9 128.6,8.9 133.3,15.9 138.1,8.9 139.9,8.9 134.1,17.3 134.1,22.9 132.5,22.9 "/>
<polygon class="st1" points="147.7,8.9 149.3,8.9 154.4,16.5 159.4,8.9 161,8.9 161,22.9 159.5,22.9 159.5,11.6 154.4,19 154.3,19 
	149.2,11.6 149.2,22.9 147.7,22.9 "/>
<polygon class="st1" points="164.7,8.9 174.7,8.9 174.7,10.4 166.2,10.4 166.2,15.1 173.9,15.1 173.9,16.5 166.2,16.5 166.2,21.4 
	174.8,21.4 174.8,22.9 164.7,22.9 "/>
<g>
	<g>
		<defs>
			<rect id="SVGID_61_" y="2.1" width="323.4" height="77.7"/>
		</defs>
		<clipPath id="SVGID_62_">
			<use xlink:href="#SVGID_61_"  style="overflow:visible;"/>
		</clipPath>
		<path class="st32" d="M179.7,10.4v11h3.3c3.5,0,5.8-2.4,5.8-5.5l0,0c0-3.1-2.3-5.5-5.8-5.5H179.7z M178.1,8.9h4.8
			c4.4,0,7.4,3,7.4,6.9l0,0c0,3.9-3,7-7.4,7h-4.8V8.9z"/>
	</g>
</g>
<rect x="193.5" y="8.9" class="st1" width="1.6" height="13.9"/>
<g>
	<g>
		<defs>
			<rect id="SVGID_63_" y="2.1" width="323.4" height="77.7"/>
		</defs>
		<clipPath id="SVGID_64_">
			<use xlink:href="#SVGID_63_"  style="overflow:visible;"/>
		</clipPath>
		<path class="st33" d="M198.4,15.9L198.4,15.9c0-4,2.9-7.2,7-7.2c2.5,0,4,0.9,5.4,2.2l-1.1,1.2c-1.2-1.1-2.5-1.9-4.4-1.9
			c-3.1,0-5.4,2.5-5.4,5.7l0,0c0,3.2,2.3,5.8,5.4,5.8c1.9,0,3.2-0.7,4.5-2l1,1c-1.5,1.5-3,2.4-5.6,2.4
			C201.3,23.1,198.4,19.9,198.4,15.9"/>
	</g>
</g>
<path class="st1" d="M222,17.7l-3.2-7.1l-3.2,7.1H222z M218.1,8.8h1.5l6.4,14h-1.7l-1.6-3.7h-7.6l-1.7,3.7h-1.6L218.1,8.8z"/>
<polygon class="st1" points="228.2,8.9 229.8,8.9 229.8,21.4 237.6,21.4 237.6,22.9 228.2,22.9 "/>
<g>
	<g>
		<defs>
			<rect id="SVGID_65_" y="2.1" width="323.4" height="77.7"/>
		</defs>
		<clipPath id="SVGID_66_">
			<use xlink:href="#SVGID_65_"  style="overflow:visible;"/>
		</clipPath>
		<path class="st34" d="M242.6,15.9L242.6,15.9c0-4,2.9-7.2,7-7.2c2.5,0,4,0.9,5.4,2.2l-1.1,1.2c-1.2-1.1-2.5-1.9-4.4-1.9
			c-3.1,0-5.4,2.5-5.4,5.7l0,0c0,3.2,2.3,5.8,5.4,5.8c1.9,0,3.2-0.7,4.5-2l1,1c-1.5,1.5-3,2.4-5.6,2.4
			C245.6,23.1,242.6,19.9,242.6,15.9"/>
	</g>
</g>
<polygon class="st1" points="257.6,8.9 267.7,8.9 267.7,10.4 259.2,10.4 259.2,15.1 266.8,15.1 266.8,16.5 259.2,16.5 259.2,21.4 
	267.8,21.4 267.8,22.9 257.6,22.9 "/>
<polygon class="st1" points="270.9,8.9 272.3,8.9 281.1,20.1 281.1,8.9 282.7,8.9 282.7,22.9 281.4,22.9 272.4,11.4 272.4,22.9 
	270.9,22.9 "/>
<polygon class="st1" points="289.9,10.4 285.2,10.4 285.2,8.9 296.2,8.9 296.2,10.4 291.5,10.4 291.5,22.9 289.9,22.9 "/>
<polygon class="st1" points="298.7,8.9 308.8,8.9 308.8,10.4 300.3,10.4 300.3,15.1 307.9,15.1 307.9,16.5 300.3,16.5 300.3,21.4 
	308.9,21.4 308.9,22.9 298.7,22.9 "/>
<g>
	<g>
		<defs>
			<rect id="SVGID_67_" y="2.1" width="323.4" height="77.7"/>
		</defs>
		<clipPath id="SVGID_68_">
			<use xlink:href="#SVGID_67_"  style="overflow:visible;"/>
		</clipPath>
		<path class="st35" d="M317.7,16c2.1,0,3.6-1.1,3.6-2.9l0,0c0-1.7-1.3-2.7-3.6-2.7h-4.3v5.7L317.7,16L317.7,16z M311.9,8.9h6
			c1.7,0,3.1,0.5,4,1.4C322.6,11,323,12,323,13l0,0c0,2.3-1.6,3.7-3.8,4.1l4.3,5.7h-1.9l-4-5.4h-4v5.4H312V8.9H311.9z"/>
	</g>
</g>
</svg>
