<?xml version="1.0" encoding="utf-8"?>
<!-- Generator: Adobe Illustrator 21.1.0, SVG Export Plug-In . SVG Version: 6.00 Build 0)  -->
<svg version="1.1" id="Layer_1" xmlns="http://www.w3.org/2000/svg" xmlns:xlink="http://www.w3.org/1999/xlink" x="0px" y="0px"
	 viewBox="0 0 353.7 61.5" style="enable-background:new 0 0 353.7 61.5;" xml:space="preserve">
<style type="text/css">
	.st0{fill:#003D79;}
</style>
<rect x="55.8" class="st0" width="1.3" height="61.5"/>
<g>
	<path class="st0" d="M19.2,21.1c-0.2-0.3-0.4-0.6-0.4-1l0,0c0-0.3,0.1-0.7,0.4-1l4.3-4.3l4.4,4.3c0.2,0.3,0.4,0.6,0.4,1l0,0
		c0,0.3-0.1,0.7-0.4,1l-4.3,4.3L19.2,21.1z"/>
	<path class="st0" d="M19.2,33.7c-0.2-0.3-0.4-0.6-0.4-1l0,0c0-0.3,0.1-0.7,0.4-1l4.3-4.3l4.4,4.3c0.2,0.3,0.4,0.6,0.4,1l0,0
		c0,0.3-0.1,0.7-0.4,1L23.5,38L19.2,33.7z"/>
	<path class="st0" d="M25.6,27.5c-0.2-0.3-0.4-0.6-0.4-1c0-0.3,0.1-0.7,0.4-1l4.3-4.3l4.4,4.3c0.2,0.3,0.4,0.6,0.4,1l0,0
		c0,0.3-0.1,0.7-0.4,1l-4.3,4.3L25.6,27.5z"/>
	<path class="st0" d="M12.7,27.5c-0.2-0.3-0.4-0.6-0.4-1l0,0c0-0.3,0.1-0.7,0.4-1l4.3-4.3l4.4,4.3c0.2,0.3,0.4,0.6,0.4,1l0,0
		c0,0.3-0.1,0.7-0.4,1l-4.3,4.3L12.7,27.5z"/>
	<path class="st0" d="M23.5,45c-0.4,0-0.9-0.1-1.3-0.2c-0.3-0.1-0.7-0.4-1.1-0.8l-3.7-3.6l-9.8-9.6H0v-4.1l8.9,0
		c0.7,0,1.1,0.3,1.6,0.7l13.1,12.8l13-12.8c0.5-0.5,0.8-0.8,1.5-0.8l8.9,0v4.1h-7.7l-9.8,9.6L25.9,44c-0.4,0.4-0.8,0.6-1.2,0.8
		C24.4,44.9,23.9,45,23.5,45"/>
	<path class="st0" d="M71.8,51.4V40.7h-2.4v-2.8h2.4v-2.4c0-2,0.4-3.4,1.3-4.1c0.8-0.8,1.8-1.1,3-1.1c2.5,0,3.9,1.3,4.3,3.8
		l-2.8,0.4c-0.1-1.1-0.5-1.6-1.2-1.6c-0.5,0-0.8,0.2-1,0.5c-0.2,0.3-0.3,1-0.3,2.1v2.4h2.8v2.8H75v10.7h3.1v2.9h-8.6v-2.9H71.8z"/>
	<path class="st0" d="M83.9,46c0,1.6,0.5,2.9,1.5,4c1,1,2.2,1.6,3.7,1.6c1.5,0,2.7-0.5,3.7-1.6c1-1,1.5-2.4,1.5-4
		c0-1.6-0.5-2.9-1.5-4c-1-1-2.2-1.6-3.7-1.6c-1.5,0-2.7,0.5-3.7,1.6C84.4,43.2,83.9,44.5,83.9,46 M80.5,46c0-2.5,0.8-4.6,2.5-6.2
		c1.7-1.6,3.7-2.4,6.1-2.4c2.3,0,4.3,0.8,6,2.4c1.7,1.6,2.5,3.7,2.5,6.3c0,2.6-0.8,4.7-2.5,6.3c-1.7,1.6-3.7,2.4-6,2.4
		c-2.4,0-4.4-0.8-6.1-2.4C81.3,50.7,80.5,48.6,80.5,46"/>
	<path class="st0" d="M117.3,51.4v2.9h-6v-1.9c-1.9,1.4-3.7,2.2-5.4,2.2c-1.1,0-2-0.2-2.7-0.7c-0.7-0.5-1.2-1.1-1.4-1.9
		c-0.2-0.8-0.4-2-0.4-3.7v-7.5h-2.3v-2.9h5.5v10c0,1.2,0,2,0.1,2.4c0.1,0.4,0.3,0.8,0.6,1c0.3,0.3,0.7,0.4,1.2,0.4
		c1.5,0,3.1-0.7,4.7-2.1v-8.9h-2.9v-2.9h6.1v13.5H117.3z"/>
	<path class="st0" d="M124.9,37.8v2c2-1.5,3.9-2.2,5.6-2.2c1.1,0,1.9,0.3,2.6,0.8s1.1,1.1,1.3,1.8c0.2,0.7,0.3,1.8,0.3,3.2v8h2.7
		v2.9h-5.9V43.5c0-1.2-0.2-2.1-0.6-2.4c-0.4-0.4-0.8-0.6-1.4-0.6c-1.4,0-3,0.7-4.8,2.1v8.8h2.8v2.9h-8.8v-2.9h2.8V40.7h-2.8v-2.9
		H124.9z"/>
	<path class="st0" d="M142.5,46c0,1.8,0.5,3.2,1.5,4.2c1,1,2.2,1.5,3.6,1.5c1.4,0,2.6-0.5,3.6-1.5c1.1-1,1.6-2.4,1.6-4.2
		c0-1.8-0.5-3.2-1.6-4.1c-1.1-0.9-2.3-1.4-3.6-1.4c-1.4,0-2.7,0.5-3.6,1.6C143,43.1,142.5,44.4,142.5,46 M159,51.4v2.9h-6.1v-2.4
		c-1.6,1.8-3.5,2.7-5.8,2.7c-2.1,0-4-0.7-5.6-2.2c-1.6-1.5-2.4-3.5-2.4-6.2c0-2.7,0.8-4.8,2.5-6.4c1.6-1.6,3.5-2.3,5.6-2.3
		c2.2,0,4.1,0.9,5.7,2.6v-6.5h-3.1v-2.9h6.3v20.7H159z"/>
	<path class="st0" d="M171.2,48.1c-1.4-1.1-2.8-1.6-4.2-1.6c-0.9,0-1.6,0.3-2.2,0.8c-0.6,0.5-0.9,1.2-0.9,2c0,0.8,0.3,1.4,0.8,1.9
		c0.5,0.5,1.2,0.8,2.1,0.8c1.5,0,3-0.7,4.4-2V48.1z M177.1,51.4v2.9h-5.6v-2c-1.5,1.5-3.3,2.3-5.2,2.3c-1.5,0-2.8-0.5-3.8-1.5
		c-1.1-1-1.6-2.2-1.6-3.7c0-1.5,0.6-2.8,1.7-3.8c1.2-1,2.6-1.5,4.2-1.5c1.5,0,3,0.5,4.4,1.4v-1.6c0-0.8-0.1-1.5-0.2-1.9
		c-0.2-0.5-0.5-0.9-1.1-1.2s-1.3-0.5-2.3-0.5c-1.6,0-2.8,0.6-3.5,1.9l-3.1-0.8c1.4-2.6,3.7-3.8,7-3.8c1.2,0,2.3,0.2,3.2,0.5
		c0.9,0.3,1.6,0.8,2,1.3c0.4,0.5,0.7,1.1,0.9,1.7s0.2,1.6,0.2,2.9v7.6H177.1z"/>
	<path class="st0" d="M178.1,40.7v-2.9h2.1v-2.5l3.2-3v5.5h3v2.9h-3v8c0,1.3,0.1,2.1,0.2,2.4c0.1,0.3,0.5,0.5,1,0.5
		c0.6,0,1.2-0.1,1.7-0.3v2.9c-0.8,0.3-1.6,0.4-2.4,0.4c-1,0-1.8-0.2-2.4-0.7c-0.6-0.4-1-1-1.1-1.6c-0.2-0.7-0.2-1.8-0.2-3.4v-8.1
		H178.1z"/>
	<path class="st0" d="M191.1,32.3c0-0.5,0.2-1,0.5-1.4c0.4-0.4,0.8-0.6,1.4-0.6c0.5,0,1,0.2,1.4,0.6c0.4,0.4,0.6,0.8,0.6,1.4
		c0,0.5-0.2,1-0.6,1.4c-0.4,0.4-0.8,0.6-1.4,0.6c-0.5,0-1-0.2-1.4-0.6C191.3,33.2,191.1,32.8,191.1,32.3 M191.6,51.4V40.7H189v-2.9
		h5.7v13.5h2.5v2.9H189v-2.9H191.6z"/>
	<path class="st0" d="M202.5,46c0,1.6,0.5,2.9,1.5,4c1,1,2.2,1.6,3.7,1.6c1.5,0,2.7-0.5,3.7-1.6c1-1,1.5-2.4,1.5-4
		c0-1.6-0.5-2.9-1.5-4c-1-1-2.2-1.6-3.7-1.6c-1.5,0-2.7,0.5-3.7,1.6C203,43.2,202.5,44.5,202.5,46 M199.1,46c0-2.5,0.8-4.6,2.5-6.2
		c1.7-1.6,3.7-2.4,6.1-2.4c2.3,0,4.3,0.8,6,2.4c1.7,1.6,2.5,3.7,2.5,6.3c0,2.6-0.8,4.7-2.5,6.3c-1.7,1.6-3.7,2.4-6,2.4
		c-2.4,0-4.4-0.8-6.1-2.4C199.9,50.7,199.1,48.6,199.1,46"/>
	<path class="st0" d="M224,37.8v2c2-1.5,3.9-2.2,5.6-2.2c1.1,0,1.9,0.3,2.6,0.8s1.1,1.1,1.3,1.8c0.2,0.7,0.3,1.8,0.3,3.2v8h2.7v2.9
		h-5.9V43.5c0-1.2-0.2-2.1-0.6-2.4c-0.4-0.4-0.8-0.6-1.4-0.6c-1.4,0-3,0.7-4.8,2.1v8.8h2.8v2.9H218v-2.9h2.8V40.7H218v-2.9H224z"/>
</g>
<polygon class="st0" points="68,7.5 69.9,7.5 75.4,20.8 80.8,7.5 82.7,7.5 76.1,23.1 74.6,23.1 "/>
<path class="st0" d="M92.7,17.3l-3.5-7.8l-3.5,7.8H92.7z M88.5,7.4h1.6L97,23h-1.9l-1.8-4.1h-8.3L83.3,23h-1.8L88.5,7.4z"/>
<polygon class="st0" points="99.4,7.5 101.1,7.5 101.1,21.4 109.7,21.4 109.7,23 99.4,23 "/>
<polygon class="st0" points="112.7,7.5 114.4,7.5 114.4,21.4 123,21.4 123,23 112.7,23 "/>
<polygon class="st0" points="125.9,7.5 136.9,7.5 136.9,9.1 127.6,9.1 127.6,14.4 136,14.4 136,16 127.6,16 127.6,21.4 137,21.4 
	137,23 125.9,23 "/>
<polygon class="st0" points="145,16.9 138.6,7.5 140.7,7.5 145.8,15.3 151,7.5 153,7.5 146.7,16.8 146.7,23 145,23 "/>
<polygon class="st0" points="161.6,7.5 163.3,7.5 168.9,16 174.4,7.5 176.1,7.5 176.1,23 174.4,23 174.4,10.5 168.9,18.7 
	168.8,18.7 163.2,10.5 163.2,23 161.6,23 "/>
<polygon class="st0" points="180.1,7.5 191.2,7.5 191.2,9.1 181.9,9.1 181.9,14.4 190.2,14.4 190.2,16 181.9,16 181.9,21.4 
	191.3,21.4 191.3,23 180.1,23 "/>
<g>
	<path class="st0" d="M196.6,9.2v12.2h3.6c3.9,0,6.3-2.6,6.3-6.1v0c0-3.4-2.5-6.1-6.3-6.1H196.6z M194.8,7.5h5.3
		c4.8,0,8.1,3.3,8.1,7.7v0c0,4.3-3.3,7.7-8.1,7.7h-5.3V7.5z"/>
</g>
<rect x="211.7" y="7.5" class="st0" width="1.7" height="15.4"/>
<g>
	<path class="st0" d="M217,15.3L217,15.3c0-4.4,3.2-8,7.7-8c2.8,0,4.4,1,5.9,2.4l-1.2,1.3c-1.3-1.2-2.7-2.1-4.8-2.1
		c-3.4,0-5.9,2.8-5.9,6.3v0c0,3.6,2.5,6.4,5.9,6.4c2.1,0,3.5-0.8,4.9-2.2l1.1,1.1c-1.6,1.6-3.3,2.7-6.1,2.7
		C220.2,23.2,217,19.7,217,15.3"/>
	<path class="st0" d="M0,61.5"/>
</g>
<path class="st0" d="M242.9,17.3l-3.5-7.8l-3.5,7.8H242.9z M238.6,7.4h1.6l6.9,15.5h-1.9l-1.8-4.1h-8.3l-1.8,4.1h-1.8L238.6,7.4z"/>
<polygon class="st0" points="249.6,7.5 251.4,7.5 251.4,21.4 259.9,21.4 259.9,23 249.6,23 "/>
<g>
	<path class="st0" d="M265.4,15.3L265.4,15.3c0-4.4,3.2-8,7.7-8c2.8,0,4.4,1,5.9,2.4l-1.2,1.3c-1.3-1.2-2.7-2.1-4.8-2.1
		c-3.4,0-5.9,2.8-5.9,6.3v0c0,3.6,2.5,6.4,5.9,6.4c2.1,0,3.5-0.8,4.9-2.2l1.1,1.1c-1.6,1.6-3.3,2.7-6.1,2.7
		C268.6,23.2,265.4,19.7,265.4,15.3"/>
</g>
<polygon class="st0" points="281.8,7.5 292.8,7.5 292.8,9.1 283.5,9.1 283.5,14.4 291.9,14.4 291.9,16 283.5,16 283.5,21.4 
	292.9,21.4 292.9,23 281.8,23 "/>
<polygon class="st0" points="296.3,7.5 297.9,7.5 307.5,19.9 307.5,7.5 309.2,7.5 309.2,23 307.8,23 298,10.3 298,23 296.3,23 "/>
<polygon class="st0" points="317.1,9.2 312,9.2 312,7.5 324,7.5 324,9.2 318.8,9.2 318.8,23 317.1,23 "/>
<polygon class="st0" points="326.8,7.5 337.8,7.5 337.8,9.1 328.5,9.1 328.5,14.4 336.8,14.4 336.8,16 328.5,16 328.5,21.4 
	337.9,21.4 337.9,23 326.8,23 "/>
<g>
	<path class="st0" d="M347.5,15.4c2.3,0,3.9-1.2,3.9-3.2v0c0-1.9-1.4-3-3.9-3h-4.7v6.3H347.5z M341.1,7.5h6.6c1.9,0,3.4,0.6,4.3,1.5
		c0.7,0.7,1.2,1.8,1.2,3v0c0,2.6-1.7,4.1-4.1,4.5l4.7,6.3h-2.1l-4.4-6h-4.4v6h-1.7V7.5z"/>
</g>
</svg>
